<svg id="2490755a-457e-4afb-a65a-0ea5e4d54fde" data-name="Layer 1" xmlns="http://www.w3.org/2000/svg" xmlns:xlink="http://www.w3.org/1999/xlink" width="945.48" height="723.06" viewBox="0 0 945.48 723.06"><defs><linearGradient id="8cd9664d-1da2-4d12-b141-6acf96f68a9c" x1="740.07" y1="472.54" x2="740.07" y2="118.79" gradientTransform="matrix(0 1.01 -1 0 1038.56 -429.84)" gradientUnits="userSpaceOnUse"><stop offset="0" stop-color="gray" stop-opacity=".25"/><stop offset=".54" stop-color="gray" stop-opacity=".12"/><stop offset="1" stop-color="gray" stop-opacity=".1"/></linearGradient><clipPath id="cdabdff6-c4be-4715-8138-a67c0a106d83" transform="translate(-130 -89.47)"><path id="7312e2fe-1465-434b-8399-0e3c35e3f2aa" data-name="&lt;Rectangle&gt;" transform="rotate(7.89 742.129 316.195)" fill="#7fb8dc" d="M448.64 159.18h586.78v313.91H448.64z"/></clipPath><linearGradient id="2e0ace27-f24d-4475-8753-15718c01a844" x1="627.79" y1="238.31" x2="627.79" y2="82.56" gradientTransform="rotate(7.89 589.222 306.706)" xlink:href="#8cd9664d-1da2-4d12-b141-6acf96f68a9c"/><linearGradient id="4557fcba-ba8e-4ca6-a47b-16bad646016f" x1="367.4" y1="723.06" x2="367.4" y2="213.51" xlink:href="#8cd9664d-1da2-4d12-b141-6acf96f68a9c"/><linearGradient id="4f826130-72fb-45c0-ad33-c53e19fef0b1" x1="367.14" y1="582.74" x2="367.14" y2="556.61" xlink:href="#8cd9664d-1da2-4d12-b141-6acf96f68a9c"/></defs><title>address</title><path transform="rotate(-82.11 626.527 346.765)" fill="url(#8cd9664d-1da2-4d12-b141-6acf96f68a9c)" d="M566.02 5.62h353.76v622.49H566.02z"/><path transform="rotate(7.89 1325.567 -670.485)" fill="#fff" d="M435.28 144.67h613.09v344.1H435.28z"/><g opacity=".3"><path id="f33a93cd-dff1-45ca-976d-3ca4de540e86" data-name="&lt;Rectangle&gt;" transform="rotate(7.89 1325.817 -671.085)" fill="#7fb8dc" d="M448.64 159.18h586.78v313.91H448.64z"/><g clip-path="url(#cdabdff6-c4be-4715-8138-a67c0a106d83)"><path fill="#7fb8dc" stroke="#fff" stroke-miterlimit="10" stroke-width="5" d="M305.89 25.78L541.8 416.84l143.51 19.89 250.56-145.67L738.08 29.61 387.52 395.45l-200.43-75.31L545.2 5.32l291.99 452.46"/></g></g><path d="M704.85 151.82c-4.16 30-65.87 92.74-65.87 92.74s-46.66-77.76-42.5-107.76a54.71 54.71 0 1 1 108.38 15z" transform="translate(-130 -89.47)" fill="url(#2e0ace27-f24d-4475-8753-15718c01a844)"/><path d="M701.29 152.77c-3.9 28.14-61.79 87-61.79 87s-43.77-72.94-39.87-101.08a51.31 51.31 0 1 1 101.65 14.09z" transform="translate(-130 -89.47)" fill="#7fb8dc"/><ellipse cx="651.03" cy="141.65" rx="25.72" ry="25.66" transform="rotate(-82.11 534.66 171.55)" fill="#fff"/><path fill="url(#4557fcba-ba8e-4ca6-a47b-16bad646016f)" d="M0 213.51v509.55h734.81V213.51H0z"/><path fill="#fff" d="M10.9 245.21h716.12V714H10.9z"/><path fill="#f5f5f5" d="M10.9 222.91h716.12v34.49H10.9z"/><circle cx="38.15" cy="239.64" r="8.36" fill="#ff5252"/><circle cx="61.15" cy="239.64" r="8.36" fill="#ff0"/><circle cx="84.14" cy="239.64" r="8.36" fill="#69f0ae"/><path fill="#7fb8dc" opacity=".5" d="M301.81 370.55h131.7v14.11h-131.7z"/><path fill="#e0e0e0" d="M206.7 431.18h144.24v14.11H206.7z"/><path transform="rotate(-180 521.51 482.97)" fill="#e0e0e0" d="M514.39 520.65h144.24v14.11H514.39z"/><path fill="#e0e0e0" d="M206.17 461.49H528.1v14.11H206.17zm0 30.31H528.1v14.11H206.17z"/><path fill="url(#4f826130-72fb-45c0-ad33-c53e19fef0b1)" d="M300.25 556.61h133.79v26.13H300.25z"/><path fill="#7fb8dc" d="M301.29 558.98h131.7v21.38h-131.7z"/></svg>