<svg id="paid" xmlns="http://www.w3.org/2000/svg" xmlns:xlink="http://www.w3.org/1999/xlink" width="722" height="756.57" viewBox="0 0 722 756.57"><defs><linearGradient id="linear-gradient" x1=".5" y1="1" x2=".5" gradientUnits="objectBoundingBox"><stop offset="0" stop-color="gray" stop-opacity=".251"/><stop offset=".54" stop-color="gray" stop-opacity=".122"/><stop offset="1" stop-color="gray" stop-opacity=".102"/></linearGradient><linearGradient id="linear-gradient-2" x1=".5" y1="1" x2=".5" y2="0" xlink:href="#linear-gradient"/><linearGradient id="linear-gradient-3" x1="1.241" y1="1.124" x2="1.241" y2=".124" xlink:href="#linear-gradient"/><linearGradient id="linear-gradient-4" x1=".5" x2=".5" y2="1" gradientUnits="objectBoundingBox"><stop offset="0" stop-color="#95e3e3"/><stop offset="1" stop-color="#17659f"/></linearGradient><linearGradient id="linear-gradient-5" x1=".5" y1="1" x2=".5" y2="0" xlink:href="#linear-gradient"/><linearGradient id="linear-gradient-6" x1="1.307" y1="2.047" x2="1.307" y2="1.047" xlink:href="#linear-gradient"/><linearGradient id="linear-gradient-7" x1=".5" y1="1" x2=".5" y2="0" xlink:href="#linear-gradient"/><linearGradient id="linear-gradient-8" x1=".5" y1="1" x2=".5" y2="0" xlink:href="#linear-gradient"/><linearGradient id="linear-gradient-9" x1=".5" y1="1" x2=".5" y2="0" xlink:href="#linear-gradient"/><linearGradient id="linear-gradient-10" x1=".5" y1="1" x2=".5" y2="0" xlink:href="#linear-gradient"/></defs><circle id="Ellipse_1703" data-name="Ellipse 1703" cx="297" cy="297" r="297" transform="translate(64 98.57)" fill="none" stroke="#3ad29f" stroke-miterlimit="10" stroke-width="2" stroke-dasharray="12"/><circle id="Ellipse_1704" data-name="Ellipse 1704" cx="360" cy="360" r="360" transform="translate(1 35.57)" fill="none" stroke="#3ad29f" stroke-miterlimit="10" stroke-width="2" stroke-dasharray="12"/><path id="Path_10071" data-name="Path 10071" d="M840.94 582.47a81.21 81.21 0 0 0-161-15.14l-249.59-6.77 2.74 42.88s-35.59 82.12 151.46 104v83h216.24v-138a81.16 81.16 0 0 0 40.15-69.97z" transform="translate(-239 -72.21)" fill="url(#linear-gradient)"/><path id="Path_10072" data-name="Path 10072" d="M441.66 605.24s-34.08 78.64 145.05 99.62v79.52H793.8V573.79L439 564.17z" transform="translate(-239 -72.21)" fill="#be7c5e"/><path id="Path_10073" data-name="Path 10073" d="M545.16 277.07a38.18 38.18 0 0 1-52.5 11.93l-111.19-73.27a38.18 38.18 0 0 1-11.93-52.5A38.18 38.18 0 0 1 422 151.3l111.19 73.27a38.18 38.18 0 0 1 11.97 52.5z" transform="translate(-239 -72.21)" fill="url(#linear-gradient-2)"/><path id="Path_10074" data-name="Path 10074" d="M539 273.07a35.49 35.49 0 0 1-48.8 11.09L386.81 216a35.49 35.49 0 0 1-11.09-48.8 35.49 35.49 0 0 1 48.8-11.09l103.37 68.12A35.49 35.49 0 0 1 539 273.07z" transform="translate(-239 -72.21)" fill="#be7c5e"/><circle id="Ellipse_1705" data-name="Ellipse 1705" cx="77.77" cy="77.77" r="77.77" transform="translate(437.72 435.17)" fill="#be7c5e"/><rect id="Rectangle_18069" data-name="Rectangle 18069" width="322.42" height="581.96" rx="12.25" transform="translate(191.32)" fill="url(#linear-gradient-3)"/><rect id="Rectangle_18070" data-name="Rectangle 18070" width="313.7" height="566.24" rx="13.64" transform="translate(195.67 7.87)" fill="#fff"/><path id="Path_10075" data-name="Path 10075" d="M670.33 94.28a25.43 25.43 0 0 1-25.07 21.63H536.92a25.43 25.43 0 0 1-25.06-21.63h-57.4a11.91 11.91 0 0 0-11.92 11.91v514a11.91 11.91 0 0 0 11.91 11.92h274.14a11.91 11.91 0 0 0 11.92-11.91v-514a11.91 11.91 0 0 0-11.91-11.92z" transform="translate(-239 -72.21)" fill="url(#linear-gradient-4)"/><rect id="Rectangle_18071" data-name="Rectangle 18071" width="69.91" height="4.37" rx="2" transform="translate(318.01 28.84)" fill="#dbdbdb"/><circle id="Ellipse_1706" data-name="Ellipse 1706" cx="2.62" cy="2.62" r="2.62" transform="translate(400.15 27.97)" fill="#dbdbdb"/><path id="Path_10076" data-name="Path 10076" d="M804.76 598.87c-22.57 5.22-38.06-9.5-43.28-32.06l-51.86-192.57a42.24 42.24 0 0 1 31.55-50.51 42.24 42.24 0 0 1 50.51 31.55L834 552.82c5.22 22.57-6.68 40.83-29.24 46.05z" transform="translate(-239 -72.21)" fill="url(#linear-gradient-5)"/><rect id="Rectangle_18072" data-name="Rectangle 18072" width="70.78" height="282.61" rx="35.39" transform="rotate(-13.01 1415.58 -1926.044)" fill="#be7c5e"/><path id="Rectangle_18073" data-name="Rectangle 18073" transform="translate(296.93 686.15)" fill="url(#linear-gradient-6)" d="M0 0h296v69H0z"/><path id="Rectangle_18074" data-name="Rectangle 18074" transform="translate(304.93 694.15)" fill="#4d8af0" d="M0 0h280v54H0z"/><path id="Path_10077" data-name="Path 10077" d="M502 483.65a37.72 37.72 0 0 1-51.87 11.79l-74.57-48.25a37.72 37.72 0 0 1-11.79-51.87 37.72 37.72 0 0 1 51.87-11.79l74.57 48.25A37.72 37.72 0 0 1 502 483.65z" transform="translate(-239 -72.21)" fill="url(#linear-gradient-7)"/><path id="Path_10078" data-name="Path 10078" d="M483.28 585.78a38.06 38.06 0 0 1-52.34 11.9L384.75 564a38.06 38.06 0 0 1-11.9-52.34 38.06 38.06 0 0 1 52.34-11.9l46.19 33.69a38.06 38.06 0 0 1 11.9 52.33z" transform="translate(-239 -72.21)" fill="url(#linear-gradient-8)"/><g id="Group_10673" data-name="Group 10673" opacity=".5"><circle id="Ellipse_1707" data-name="Ellipse 1707" cx="89.94" cy="89.94" r="89.94" transform="translate(262.58 201.05)" fill="url(#linear-gradient-9)"/></g><circle id="Ellipse_1708" data-name="Ellipse 1708" cx="84.65" cy="84.65" r="84.65" transform="translate(267.87 206.34)" fill="#69f0ae"/><path id="Path_10079" data-name="Path 10079" d="M315.78 279.69l31.74 29.1 44.97-66.13 15.88 13.23-60.85 79.36-44.97-50.26z" fill="#fff"/><path id="Path_10080" data-name="Path 10080" d="M479.55 583.27a35.49 35.49 0 0 1-48.8 11.09L387.67 563a35.49 35.49 0 0 1-11.09-48.8 35.49 35.49 0 0 1 48.8-11.09l43.07 31.42a35.49 35.49 0 0 1 11.1 48.74z" transform="translate(-239 -72.21)" fill="#be7c5e"/><path id="Path_10081" data-name="Path 10081" d="M497.9 481a35.49 35.49 0 0 1-48.8 11.09l-70.16-45.4a35.49 35.49 0 0 1-11.09-48.8 35.49 35.49 0 0 1 48.8-11.09l70.16 45.4A35.49 35.49 0 0 1 497.9 481z" transform="translate(-239 -72.21)" fill="#be7c5e"/><path id="Path_10082" data-name="Path 10082" d="M521.28 382a37.9 37.9 0 0 1-52.11 11.84l-94.5-61.53a37.9 37.9 0 0 1-11.84-52.11 37.9 37.9 0 0 1 52.11-11.84l94.5 61.53A37.9 37.9 0 0 1 521.28 382z" transform="translate(-239 -72.21)" fill="url(#linear-gradient-10)"/><path id="Path_10083" data-name="Path 10083" d="M516.26 378.8a35.49 35.49 0 0 1-48.8 11.09l-88.51-57.63a35.49 35.49 0 0 1-11.09-48.8 35.49 35.49 0 0 1 48.8-11.09l88.5 57.63a35.49 35.49 0 0 1 11.1 48.8z" transform="translate(-239 -72.21)" fill="#be7c5e"/></svg>